PathFileType  4	(X/Y/Z) C:\Users\HPL 1\Documents/Temp/Sub278498/Files_W_HJCs/
DataRate	CameraRate	NumFrames	NumMarkers	Units	OrigDataRate	OrigDataStartFrame	OrigNumFrames
50.0	50.0	4	42	mm	50.0	257	684
Frame#	Time  	r_knee			r_shank(antsup)			r_ankle			r_calc			r_5meta			r_toe			L_knee			L_shank(ant_sup)			L_ankle			L_calc			L_5meta			L_toe			r_mknee			r_mankle			L_mknee			L_mankle			r_sh2			r_sh3			r_sh4			L_sh2			L_sh3			r_thigh1			r_thigh2			r_thigh3			r_thigh4			r_thigh5			L_thigh1			L_thigh2			L_thigh3			L_thigh4			r.ASIS			r.PSIS			L.ASIS			L.PSIS			C7			R_Shoulder			L_Shoulder			Sternum			R_HJC			L_HJC			R_HJC_reg			L_HJC_reg			
		X1	Y1	Z1	X2	Y2	Z2	X3	Y3	Z3	X4	Y4	Z4	X5	Y5	Z5	X6	Y6	Z6	X7	Y7	Z7	X8	Y8	Z8	X9	Y9	Z9	X10	Y10	Z10	X11	Y11	Z11	X12	Y12	Z12	X13	Y13	Z13	X14	Y14	Z14	X15	Y15	Z15	X16	Y16	Z16	X17	Y17	Z17	X18	Y18	Z18	X19	Y19	Z19	X20	Y20	Z20	X21	Y21	Z21	X22	Y22	Z22	X23	Y23	Z23	X24	Y24	Z24	X25	Y25	Z25	X26	Y26	Z26	X27	Y27	Z27	X28	Y28	Z28	X29	Y29	Z29	X30	Y30	Z30	X31	Y31	Z31	X32	Y32	Z32	X33	Y33	Z33	X34	Y34	Z34	X35	Y35	Z35	X36	Y36	Z36	X37	Y37	Z37	X38	Y38	Z38	X39	Y39	Z39	X40	Y40	Z40	X41	Y41	Z41	X42	Y42	Z42	

257	5.12000	785.62445	570.10675	-255.16266	798.11487	478.69116	-253.32555	710.79907	111.66429	-283.45313	622.16333	70.65930	-333.29492	817.90375	39.21500	-249.30550	862.35339	71.79989	-309.74548	764.23920	605.27991	-618.05072	790.80145	486.56339	-636.79834	696.78320	147.64912	-668.76166	626.75470	95.85656	-615.61334	808.31744	81.34682	-732.28571	858.41089	101.99662	-675.41730	785.74060	557.16974	-383.78461	727.29919	119.04974	-378.85736	799.62891	577.39240	-499.70190	737.04370	139.04980	-581.93604	784.61298	359.63449	-261.49600	722.73523	484.05502	-242.23006	702.35321	369.68268	-246.34758	702.13416	509.56241	-640.66394	685.65778	388.70981	-655.56110	831.46820	900.17078	-231.41763	843.88580	785.89301	-235.77057	799.93152	749.10339	-226.65511	720.32062	883.17499	-212.31062	736.02539	767.16644	-230.58177	828.39014	882.11633	-601.78223	843.77649	745.40466	-618.37939	711.94373	870.81537	-608.02539	732.19629	736.25494	-611.56458	845.79706	1088.67712	-264.79453	652.31396	1126.03113	-341.44333	835.79425	1122.15955	-520.94836	653.65326	1135.13977	-421.06427	734.04272	1620.73108	-375.30573	781.90680	1584.67810	-209.09416	796.07617	1584.89514	-554.82367	864.07947	1534.47571	-371.75043	779.09415	1000.09941	-283.53631	769.14293	1030.83106	-517.68316	771.61307	1016.00621	-311.03311	774.46419	1035.39680	-480.53119
258	5.14000	785.94531	569.90552	-254.38509	798.59070	478.47479	-252.73347	710.82892	111.61394	-283.34113	622.19257	70.64916	-333.22659	817.88739	39.19411	-249.25214	862.37738	71.79154	-309.71988	761.18231	610.21857	-630.89905	787.00867	492.23602	-654.28094	691.40063	154.94374	-696.84735	621.76196	101.70748	-644.66010	801.94385	89.86295	-763.83441	852.68378	108.76305	-707.51233	786.23492	557.27820	-383.08337	727.25745	119.13644	-378.74863	797.78821	578.14569	-514.27936	732.52887	142.94800	-610.86591	784.93231	359.49310	-260.95572	723.18884	483.88434	-241.47574	702.76868	369.51846	-245.84761	698.35669	515.63293	-655.87573	680.38647	395.42880	-674.59918	831.49969	900.10687	-230.49835	844.09216	785.86865	-234.95462	800.33569	748.95483	-225.63118	720.40222	882.75757	-210.81931	736.32910	766.85706	-229.26440	826.62067	886.14410	-605.81506	841.86676	750.08636	-626.14136	710.21173	875.53430	-611.28552	729.84137	741.32489	-619.58551	845.48816	1088.39392	-263.22998	652.18353	1125.77551	-339.80951	836.30408	1123.25342	-519.91589	653.31006	1135.26794	-419.44003	733.85193	1620.76428	-374.10413	781.40015	1585.00305	-207.81886	796.36768	1584.82788	-553.51324	863.83447	1534.56409	-370.23413	779.16506	999.78766	-282.66830	769.39237	1031.74570	-516.65845	771.97196	1015.68812	-309.78856	774.37490	1035.93594	-479.64436
259	5.16000	786.14563	569.73413	-253.81334	798.77966	478.29562	-252.26268	710.82202	111.59671	-283.29001	622.16376	70.67159	-333.19531	817.90070	39.21690	-249.27147	862.37274	71.76498	-309.73358	758.17316	616.33594	-644.49475	782.61322	498.97278	-673.38171	685.67084	164.10336	-726.88074	616.44012	109.38280	-675.74951	794.77313	100.87934	-797.40314	846.44965	117.13222	-741.15540	786.58673	557.37860	-382.48965	727.30035	119.17068	-378.66934	795.54181	579.91785	-529.57141	727.75562	148.49477	-641.98804	785.16443	359.35855	-260.65762	723.41083	483.74805	-240.97594	702.90698	369.43506	-245.47302	694.44641	522.85992	-672.27710	677.08179	403.52719	-695.69110	831.41138	899.94482	-229.35796	844.01166	785.58270	-234.26694	800.53870	748.68591	-224.81261	720.47626	882.30261	-209.54918	736.53802	766.43628	-228.12144	825.17480	890.83960	-609.57404	839.62781	755.55994	-634.97797	708.52905	880.74463	-614.72290	728.27203	746.52893	-628.37988	845.33319	1088.19104	-261.56436	651.87695	1125.81152	-338.11014	836.15399	1124.29407	-518.47308	653.25732	1135.70288	-417.34180	733.63043	1620.89185	-373.03253	781.03461	1585.27112	-206.36676	796.61591	1584.77124	-552.10040	863.65649	1534.69214	-368.63870	779.10498	999.63639	-281.52822	769.22754	1032.72165	-515.35725	771.60359	1015.46248	-308.85421	774.56511	1036.68393	-478.84205
260	5.18000	786.06110	569.61493	-253.17935	798.81287	478.17374	-251.80898	710.82928	111.59949	-283.32498	622.14893	70.64085	-333.26300	817.90997	39.19904	-249.26662	862.36719	71.77671	-309.73016	755.13562	623.34821	-658.50507	778.55011	506.92706	-692.37445	679.88202	174.99599	-758.24646	611.26813	118.56258	-708.32318	788.07111	113.74510	-831.94702	840.39374	127.49522	-776.14722	786.58624	557.47052	-381.96872	727.29047	119.19893	-378.68958	793.13898	582.08722	-545.20398	722.73682	155.63930	-674.33099	785.13275	359.27103	-260.45383	723.87360	483.67410	-240.79300	702.86023	369.32938	-245.22408	690.50110	531.24976	-689.78308	672.23657	412.91595	-717.48450	831.32343	899.59631	-227.86882	843.92676	785.27087	-233.29790	800.34985	748.25873	-223.76042	720.26141	881.79901	-208.00653	736.30151	766.00494	-227.06712	823.73688	896.01556	-613.30127	837.46600	761.71606	-644.45886	707.07703	886.61865	-618.36920	725.72839	753.29858	-637.23004	845.20190	1088.02209	-259.80115	651.66302	1126.08655	-336.09467	835.88715	1125.43127	-516.88654	653.20306	1136.56482	-415.17587	733.26697	1621.06531	-371.79535	780.70770	1585.61646	-204.97011	796.77020	1584.75427	-550.58789	863.50586	1534.96045	-366.85464	778.93139	999.60683	-280.29236	768.86033	1033.90921	-513.93767	771.27599	1015.17507	-307.90558	774.58767	1037.70741	-477.96083
